# xmcd
#
# Track frame offsets: 
#        150
#        25860
#        50656
#        76636
#        102958
#        122961
#        148642
#        169819
#        190545
#        216012
#        252380
#        272861
#        296037
#
# Disc length: 4429 seconds
#
# Revision: 1
# Processed by: cddbd v1.5.2PL0 Copyright (c) Steve Scherf et al.
# Submitted via: ExactAudioCopy v0.95b4
#
DISCID=bd114b0d
DTITLE=Indigenous (with Mato Nanji) - Vanishing Americans
DYEAR=2013
DGENRE=Blues-Rock
TTITLE0=Everything You Need
TTITLE1=Lonely Road
TTITLE2=Don't Let Them Drive You Away
TTITLE3=Cold Hearted Woman
TTITLE4=Take Me Back
TTITLE5=Can't Cry No More
TTITLE6=Now That The Sunshine Is Gone
TTITLE7=In My Sights
TTITLE8=Always With You
TTITLE9=Dark Days
TTITLE10=Don't Be Afraid
TTITLE11=I'll Keep Standing
TTITLE12=Moon Is Rising
EXTD=
EXTT0=
EXTT1=
EXTT2=
EXTT3=
EXTT4=
EXTT5=
EXTT6=
EXTT7=
EXTT8=
EXTT9=
EXTT10=
EXTT11=
EXTT12=
PLAYORDER=
